<?xml version="1.0" encoding="UTF-8" standalone="no"?>
<!-- Created with Inkscape (http://www.inkscape.org/) -->

<svg
   width="76.495911mm"
   height="65.500267mm"
   viewBox="0 0 76.495911 65.500267"
   version="1.1"
   id="svg1"
   inkscape:version="1.3 (0e150ed6c4, 2023-07-21)"
   sodipodi:docname="gamedev-fossgames.svg"
   xmlns:inkscape="http://www.inkscape.org/namespaces/inkscape"
   xmlns:sodipodi="http://sodipodi.sourceforge.net/DTD/sodipodi-0.dtd"
   xmlns="http://www.w3.org/2000/svg"
   xmlns:svg="http://www.w3.org/2000/svg">
  <sodipodi:namedview
     id="namedview1"
     pagecolor="#ffffff"
     bordercolor="#666666"
     borderopacity="1.0"
     inkscape:showpageshadow="2"
     inkscape:pageopacity="0.0"
     inkscape:pagecheckerboard="0"
     inkscape:deskcolor="#d1d1d1"
     inkscape:document-units="mm"
     inkscape:zoom="1.1256816"
     inkscape:cx="-132.36424"
     inkscape:cy="1490.2082"
     inkscape:window-width="3840"
     inkscape:window-height="2054"
     inkscape:window-x="2549"
     inkscape:window-y="-11"
     inkscape:window-maximized="1"
     inkscape:current-layer="layer1"
     showgrid="false" />
  <defs
     id="defs1" />
  <g
     inkscape:label="Vrstva 1"
     inkscape:groupmode="layer"
     id="layer1"
     transform="translate(124.34727,-362.29302)">
    <path
       id="path30"
       style="opacity:1;vector-effect:none;fill:#333333;stroke-width:0.665004"
       d="m -85.921998,362.29303 a 14.125127,14.125127 0 0 0 -14.125232,14.12523 14.125127,14.125127 0 0 0 14.125232,14.12472 14.125127,14.125127 0 0 0 14.125236,-14.12472 14.125127,14.125127 0 0 0 -14.125236,-14.12523 z m 0,3.25458 a 10.870728,10.870728 0 0 1 10.870654,10.87065 10.870728,10.870728 0 0 1 -10.870654,10.87066 10.870728,10.870728 0 0 1 -10.870657,-10.87066 10.870728,10.870728 0 0 1 10.870657,-10.87065 z" />
    <path
       id="path37"
       style="font-variation-settings:normal;opacity:1;vector-effect:none;fill:#ff7f2a;fill-opacity:1;stroke-width:0.665001;stroke-linecap:butt;stroke-linejoin:miter;stroke-miterlimit:4;stroke-dasharray:none;stroke-dashoffset:0;stroke-opacity:1;-inkscape-stroke:none;stop-color:#000000;stop-opacity:1"
       d="m -85.921998,399.54336 a 14.125127,14.125127 0 0 0 -14.125232,14.12523 14.125127,14.125127 0 0 0 14.125232,14.12472 14.125127,14.125127 0 0 0 14.125236,-14.12472 14.125127,14.125127 0 0 0 -14.125236,-14.12523 z m 0,3.25458 a 10.870728,10.870728 0 0 1 10.870654,10.87065 10.870728,10.870728 0 0 1 -10.870654,10.87066 10.870728,10.870728 0 0 1 -10.870657,-10.87066 10.870728,10.870728 0 0 1 10.870657,-10.87065 z" />
    <path
       id="path38"
       style="opacity:1;vector-effect:none;fill:#333333;stroke-width:0.665004"
       d="m -103.86427,380.96364 -9.36017,9.36016 -0.19635,-18.91668 z"
       sodipodi:nodetypes="cccc" />
    <path
       id="path39"
       style="opacity:1;vector-effect:none;fill:#333333;stroke-width:0.665004"
       d="m -112.79345,379.19941 a 14.125127,14.125127 0 0 0 -11.55382,13.85962 14.125127,14.125127 0 0 0 11.55382,13.85911 v -3.33158 a 10.870728,10.870728 0 0 1 -8.29924,-10.52753 10.870728,10.870728 0 0 1 8.29924,-10.52751 z" />
    <path
       id="path40"
       style="font-variation-settings:normal;opacity:1;vector-effect:none;fill:#ff7f2a;fill-opacity:1;stroke-width:0.665001;stroke-linecap:butt;stroke-linejoin:miter;stroke-miterlimit:4;stroke-dasharray:none;stroke-dashoffset:0;stroke-opacity:1;-inkscape-stroke:none;stop-color:#000000;stop-opacity:1"
       d="m -68.33436,402.63812 9.36017,-9.36016 0.19635,18.91668 z"
       sodipodi:nodetypes="cccc" />
    <path
       id="path41"
       style="font-variation-settings:normal;opacity:1;vector-effect:none;fill:#ff7f2a;fill-opacity:1;stroke-width:0.665001;stroke-linecap:butt;stroke-linejoin:miter;stroke-miterlimit:4;stroke-dasharray:none;stroke-dashoffset:0;stroke-opacity:1;-inkscape-stroke:none;stop-color:#000000;stop-opacity:1"
       d="m -59.40518,404.40235 a 14.125127,14.125127 0 0 0 11.55382,-13.85962 14.125127,14.125127 0 0 0 -11.55382,-13.85911 v 3.33158 a 10.870728,10.870728 0 0 1 8.29924,10.52753 10.870728,10.870728 0 0 1 -8.29924,10.52752 z" />
  </g>
</svg>
